<svg xmlns="http://www.w3.org/2000/svg" version="1.1" xmlns:xlink="http://www.w3.org/1999/xlink" xmlns:svgjs="http://svgjs.dev/svgjs" width="1000" height="623" viewBox="0 0 1000 623"><g transform="matrix(1,0,0,1,-0.6060606060606233,0.2522267206477409)"><svg viewBox="0 0 396 247" data-background-color="#ffffff" preserveAspectRatio="xMidYMid meet" height="623" width="1000" xmlns="http://www.w3.org/2000/svg" xmlns:xlink="http://www.w3.org/1999/xlink"><g id="tight-bounds" transform="matrix(1,0,0,1,0.2400000000000091,-0.09999999999999432)"><svg viewBox="0 0 395.52 247.2" height="247.2" width="395.52"><g><svg></svg></g><g><svg viewBox="0 0 395.52 247.2" height="247.2" width="395.52"><g transform="matrix(1,0,0,1,39.55199999999999,46.773086357947435)"><svg viewBox="0 0 316.416 153.65382728410512" height="153.65382728410512" width="316.416"><g><svg viewBox="0 0 316.416 153.65382728410512" height="153.65382728410512" width="316.416"><g><svg viewBox="0 0 316.416 153.65382728410512" height="153.65382728410512" width="316.416"><g><svg viewBox="0 0 316.416 153.65382728410512" height="153.65382728410512" width="316.416"><g id="textblocktransform"><svg viewBox="0 0 316.416 153.65382728410512" height="153.65382728410512" width="316.416" id="textblock"><g><svg viewBox="0 0 316.416 153.65382728410512" height="153.65382728410512" width="316.416"><g transform="matrix(1,0,0,1,0,0)"><svg width="316.416" viewBox="1.5 -38.099998474121094 79.9000015258789 38.79999923706055" height="153.65382728410512" data-palette-color="#e4720f"><path d="M1.5-2.4L1.5-2.4 2.2-8.9 3.9-8.8Q3.9-6.05 7.18-4.38 10.45-2.7 14.63-2.7 18.8-2.7 20.9-3.98 23-5.25 23-7.2L23-7.2Q23-10.5 19.5-13.1L19.5-13.1Q18.05-14.15 16.45-14.95L16.45-14.95Q12.8-16.85 11.88-17.38 10.95-17.9 9.8-18.45 8.65-19 7.68-19.63 6.7-20.25 5.6-21.15L5.6-21.15Q3.1-23.15 3.1-25.63 3.1-28.1 3.98-29.95 4.85-31.8 6.18-32.85 7.5-33.9 9.3-34.6L9.3-34.6Q12.35-35.7 16.13-35.7 19.9-35.7 23.4-33.8L23.4-33.8 22.8-28 21.1-28Q21.1-32.7 13.2-32.7L13.2-32.7Q9.55-32.7 7.73-31.55 5.9-30.4 5.9-28.4L5.9-28.4Q5.9-25.2 16.3-20.7L16.3-20.7Q23.15-17.75 25.05-14.15L25.05-14.15Q26-12.35 26-10.2L26-10.2Q26-5 21.83-2.15 17.65 0.7 11.75 0.7 5.85 0.7 1.5-2.4ZM54.8-1.4L54.8 0 46.1 0 46.1-1.4 46.4-1.4Q46.9-1.4 47.25-1.93 47.6-2.45 47.6-3.3L47.6-3.3 47.6-16Q47.6-20.6 43.6-20.6L43.6-20.6Q40.75-20.6 38.57-17.6 36.4-14.6 36.4-13.1L36.4-13.1 36.4-3.6Q36.4-2.85 36.5-2.45L36.5-2.45Q36.75-1.4 38.6-1.4L38.6-1.4 39.6-1.4 39.6 0 29.5 0 29.5-1.4 30.2-1.4Q31.55-1.4 31.97-1.88 32.4-2.35 32.4-3.3L32.4-3.3 32.4-33Q32.4-33.95 31.75-34.38 31.1-34.8 29.5-34.8L29.5-34.8 29.5-36.2Q30.55-36.2 32.6-36.75 34.65-37.3 35.5-37.9L35.5-37.9 36.4-38.1 36.4-17.4Q39-24 45.8-24L45.8-24Q47.6-24 48.87-23.2 50.15-22.4 50.7-21.15L50.7-21.15Q51.7-19.05 51.7-16.9L51.7-16.9 51.7-3.4Q51.7-2.7 51.8-2.35L51.8-2.35Q52-1.4 53.8-1.4L53.8-1.4 54.8-1.4ZM68.09 0.7L68.09 0.7Q63.7 0.7 60.75-2.6 57.8-5.9 57.8-10.3L57.8-10.3Q57.8-15.9 62.02-19.95 66.25-24 70.95-24 75.65-24 78.52-20.68 81.4-17.35 81.4-13L81.4-13Q81.4-7.55 77.37-3.43 73.34 0.7 68.09 0.7ZM61.3-13Q61.3-8.35 64.12-5.28 66.95-2.2 70.47-2.2 74-2.2 76-4.85 78-7.5 78-10.3L78-10.3Q78-14.55 75.37-17.73 72.75-20.9 69-20.9 65.25-20.9 63.27-18.38 61.3-15.85 61.3-13L61.3-13Z" opacity="1" transform="matrix(1,0,0,1,0,0)" fill="#e4720f" class="wordmark-text-0" data-fill-palette-color="primary" id="text-0"></path></svg></g></svg></g></svg></g></svg></g><g></g></svg></g></svg></g></svg></g><g><path xmlns="http://www.w3.org/2000/svg" d="M0 247.2v-247.2h395.52v247.2zM381.663 233.343v-219.486h-367.806v219.486z" fill="#e4720f" fill-rule="nonzero" stroke="none" stroke-width="1" stroke-linecap="butt" stroke-linejoin="miter" stroke-miterlimit="10" stroke-dasharray="" stroke-dashoffset="0" font-family="none" font-weight="none" font-size="none" text-anchor="none" style="mix-blend-mode: normal" data-fill-palette-color="tertiary"></path></g></svg></g><defs></defs></svg><rect width="395.52" height="247.2" fill="none" stroke="none" visibility="hidden"></rect></g></svg></g></svg>